<?xml version="1.0" standalone="no"?>
<!DOCTYPE svg PUBLIC "-//W3C//DTD SVG 1.1//EN" "http://www.w3.org/Graphics/SVG/1.1/DTD/svg11.dtd" >
<!--
2013-9-30: Created.
-->
<svg>
<metadata>
Created by iconfont
</metadata>
<defs>

<font id="iconfont" horiz-adv-x="1024" >
  <font-face
    font-family="iconfont"
    font-weight="500"
    font-stretch="normal"
    units-per-em="1024"
    ascent="896"
    descent="-128"
  />
    <missing-glyph />
    
    <glyph glyph-name="xia" unicode="&#58923;" d="M534.528 239.616c-8.192 0-16.384 3.072-22.528 9.216L287.744 473.088c-12.288 12.288-12.288 32.768 0 45.056 12.288 12.288 32.768 12.288 45.056 0l201.216-201.216 201.216 201.216c12.288 12.288 32.768 12.288 45.056 0 12.288-12.288 12.288-32.768 0-45.056L556.032 248.832c-5.12-5.632-13.312-9.216-21.504-9.216z"  horiz-adv-x="1024" />

    
    <glyph glyph-name="sousuo" unicode="&#58924;" d="M947.2-51.2c-12.8-12.8-32-12.8-51.2 0L697.6 160c-70.4-64-160-108.8-262.4-108.8C230.4 44.8 64 224 64 441.6 64 659.2 230.4 832 441.6 832s377.6-172.8 377.6-390.4c0-83.2-25.6-166.4-70.4-230.4L953.6 0c12.8-19.2 12.8-38.4-6.4-51.2zM441.6 755.2c-166.4 0-307.2-140.8-307.2-320 0-172.8 134.4-320 307.2-320s307.2 140.8 307.2 320c-6.4 179.2-140.8 320-307.2 320z"  horiz-adv-x="1024" />

    
    <glyph glyph-name="you_" unicode="&#58925;" d="M698.848 408.917l-459.89-421.091a38.684 38.684 0 0 1 0-54.727 38.855 38.855 0 0 1 54.841 0l485.149 444.188c1.99 1.309 4.55 0.853 6.371 2.617a38.23 38.23 0 0 1 11.037 28.786 38.343 38.343 0 0 1-10.98 29.184c-1.877 1.82-4.551 1.365-6.656 2.787L293.685 884.622a38.855 38.855 0 0 1-54.784 0 38.628 38.628 0 0 1 0-54.613L698.905 408.86z"  horiz-adv-x="1024" />

    
    <glyph glyph-name="yanjing" unicode="&#58926;" d="M512 549.888c-91.136 0-165.376-74.24-165.376-165.376S420.864 219.136 512 219.136s165.376 74.24 165.376 165.376S603.136 549.888 512 549.888z m0-269.312c-57.344 0-103.936 46.592-103.936 103.936 0 57.344 46.592 103.936 103.936 103.936s103.936-46.592 103.936-103.936S569.344 280.576 512 280.576z m437.76 119.296C876.032 539.648 702.464 680.96 512 680.96S147.968 539.648 74.752 399.872L66.048 384l8.704-15.872C147.968 228.352 321.536 87.04 512 87.04s364.032 141.824 437.76 281.088L957.952 384l-8.192 15.872zM512 152.576c-156.672 0-305.664 116.736-373.248 231.424C206.848 499.2 355.328 615.424 512 615.424S817.664 499.2 885.248 384C817.664 269.312 668.672 152.576 512 152.576z"  horiz-adv-x="1024" />

    
    <glyph glyph-name="pinglun" unicode="&#58928;" d="M826.368 771.072H197.632c-64 0-116.224-50.688-116.224-112.64V261.12c0-62.464 52.224-112.64 116.224-112.64h335.36l154.112-143.872c5.632-5.12 12.288-7.68 19.968-7.68 8.192 0 15.872 3.584 21.504 9.728 11.264 12.288 10.24 30.72-1.536 41.472L564.224 199.68c-1.536 1.536-4.096 3.072-6.144 4.096h-0.512c-0.512 0.512-1.536 1.024-2.048 1.024s-1.024 0.512-1.024 0.512c-0.512 0-1.024 0.512-1.536 0.512s-1.536 0.512-1.536 0.512h-0.512c-2.048 0.512-4.608 1.024-7.168 1.024H197.632c-31.232 0-57.344 24.064-57.344 54.272v396.8c0 29.696 25.6 54.272 57.344 54.272H826.88c31.744 0 57.344-24.064 57.344-54.272V261.12c0-29.696-25.6-54.272-57.344-54.272h-43.52c-16.384 0-29.184-13.312-29.184-29.184 0-16.384 13.312-29.184 29.184-29.184h43.52c64 0 116.224 50.688 116.224 112.64V658.432c-0.512 61.952-52.224 112.64-116.736 112.64zM272.896 458.24c0-24.064 19.968-44.032 44.032-44.032s44.032 19.968 44.032 44.032c0.512 24.576-19.456 44.544-43.52 44.544s-44.544-19.968-44.544-44.544z m195.584 1.536c0-24.064 19.968-44.032 44.032-44.032 24.064 0 44.032 19.968 44.032 44.032s-19.968 44.032-44.032 44.032c-24.576 0-44.032-19.968-44.032-44.032z m238.592 43.008c-24.064 0-44.032-19.968-44.032-44.032s19.968-44.032 44.032-44.032c24.064 0 44.032 19.968 44.032 44.032 0.512 24.064-19.456 44.032-44.032 44.032z"  horiz-adv-x="1024" />

    
    <glyph glyph-name="flash-" unicode="&#58930;" d="M416.5-56.5c-3.7 0-7.4 0.8-10.8 2.6-9.6 4.9-14.8 15.6-12.7 26.1l58.2 291.3H144.5c-9.5 0-18.1 5.6-21.9 14.3-3.8 8.7-2.2 18.8 4.2 25.8l464 512c7.2 8 18.9 10.2 28.6 5.3 9.6-4.9 14.8-15.6 12.7-26.1l-58.3-291.3h306.7c9.5 0 18.1-5.6 21.9-14.3 3.8-8.7 2.2-18.8-4.2-25.8l-464-512c-4.6-5.2-11.1-7.9-17.7-7.9z m-217.9 368h281.9c7.2 0 14-3.2 18.6-8.8s6.4-12.9 5-19.9l-47-234.8 369.3 407.5H544.5c-7.2 0-14 3.2-18.6 8.8s-6.4 12.9-5 19.9l47 234.8-369.3-407.5z"  horiz-adv-x="1024" />

    
    <glyph glyph-name="bianji" unicode="&#58931;" d="M153.6-6.656a32.256 32.256 0 0 0 0 64h716.8a32.256 32.256 0 0 0 0-64zM743.936 744.96l72.192-72.192a51.2 51.2 0 0 0 0-72.192L358.4 144.384a51.2 51.2 0 0 0-36.352-14.848h-95.232a25.6 25.6 0 0 0-25.6 25.6v97.792a51.2 51.2 0 0 0 14.848 36.352l455.68 455.68a51.2 51.2 0 0 0 72.192 0z m-478.72-497.152v-54.272h54.272l442.88 442.88-54.272 54.784z"  horiz-adv-x="1024" />

    
    <glyph glyph-name="guanbi1" unicode="&#58940;" d="M512 463.538L865.925 817.5a56.137 56.137 0 0 0 79.538 0 56.175 56.175 0 0 0 0-79.537L591.5 384l353.925-353.925c21.975-21.975 22.125-57.413 0-79.538a56.175 56.175 0 0 0-79.538 0L512 304.5l-353.925-354a56.137 56.137 0 0 0-79.538 0 56.175 56.175 0 0 0 0 79.537L432.5 384l-354 353.925a56.137 56.137 0 0 0 0 79.538 56.175 56.175 0 0 0 79.537 0L512 463.5z"  horiz-adv-x="1024" />

    
    <glyph glyph-name="menu-fill1" unicode="&#58942;" d="M201.216 121.856c-21.504 0-38.912 17.408-38.912 38.912 0 21.504 17.408 38.912 38.912 38.912H819.2c10.24 0 20.48-4.096 27.648-11.264 7.168-7.168 11.264-17.408 11.264-27.648s-4.096-20.48-11.264-27.648c-7.168-7.168-17.408-11.264-27.648-11.264H201.216z m0 223.232c-21.504 0-38.912 17.408-38.912 38.912 0 21.504 17.408 38.912 38.912 38.912H819.2c10.24 0 20.48-4.096 27.648-11.264 7.168-7.168 11.264-17.408 11.264-27.648 0-10.24-4.096-20.48-11.264-27.648-7.168-7.168-17.408-11.264-27.648-11.264H201.216z m0 222.72c-21.504 0-38.912 17.408-38.912 38.912 0 21.504 17.408 38.912 38.912 38.912H819.2c21.504 0 38.912-17.408 38.912-38.912 0-21.504-17.408-38.912-38.912-38.912H201.216z"  horiz-adv-x="1025" />

    
    <glyph glyph-name="tuding1" unicode="&#58943;" d="M385.506 896L512 769.506l-42.165-48.188 252.989-252.989 90.352 84.33 126.495-126.494L722.824 215.34 1024-85.835 981.835-128 686.682 167.153l-210.823-204.8-126.494 126.494 78.306 84.33-259.012 252.988L126.494 384 0 510.494 385.506 896zM168.659 516.518L512 173.176l-90.353-90.352 42.165-42.165 385.506 385.506-42.165 42.164L722.823 384l-343.34 337.318 42.164 42.164-42.165 42.165L84.33 510.494l42.165-42.165 42.165 48.189z"  horiz-adv-x="1024" />

    
    <glyph glyph-name="yuandian" unicode="&#58945;" d="M320 377.088a192 192 0 1 1 384 0 192 192 0 1 1-384 0zM873.856 745.856C774.208 845.44 652.416 896 512 896S249.792 845.44 150.144 745.856C50.56 646.208 0 524.416 0 384c0-140.48 50.56-262.272 150.144-361.856C249.792-77.504 371.584-128 512-128s262.208 50.496 361.856 150.144C973.504 121.728 1024 243.52 1024 384c0 140.416-50.496 262.208-150.144 361.856z m-45.248-678.464C740.16-21.056 636.544-64 512-64c-124.608 0-228.16 42.944-316.608 131.392C106.944 155.776 64 259.392 64 384s42.944 228.16 131.392 316.608C283.84 789.056 387.392 832 512 832c124.544 0 228.16-42.944 316.608-131.392C917.056 612.16 960 508.608 960 384s-42.944-228.224-131.392-316.608z"  horiz-adv-x="1024" />

    
    <glyph glyph-name="yuandian-copy" unicode="&#58946;" d="M512 261.461c-16.531 0-32.594 3.246-47.695 9.627-14.578 6.162-27.699 15.019-38.949 26.268a122.593 122.593 0 0 0-26.268 38.949c-6.381 15.1-9.627 31.164-9.627 47.695s3.246 32.594 9.627 47.695c6.162 14.578 15.019 27.699 26.268 38.949s24.37 20.079 38.949 26.268c15.1 6.381 31.164 9.627 47.695 9.627s32.594-3.246 47.695-9.627c14.578-6.162 27.699-15.019 38.949-26.268a122.593 122.593 0 0 0 26.268-38.949c6.381-15.1 9.627-31.164 9.627-47.695s-3.246-32.594-9.627-47.695c-6.162-14.578-15.019-27.699-26.268-38.949a122.593 122.593 0 0 0-38.949-26.268c-15.1-6.381-31.164-9.627-47.695-9.627zM512 502c15.926 0 31.384-3.108 45.935-9.27a117.173 117.173 0 0 0 37.518-25.305 118.071 118.071 0 0 0 25.305-37.518c6.162-14.55 9.27-29.981 9.27-45.935s-3.108-31.384-9.27-45.934a117.173 117.173 0 0 0-25.305-37.518 118.071 118.071 0 0 0-37.518-25.306c-14.55-6.161-29.982-9.27-45.935-9.27s-31.384 3.109-45.935 9.27a117.173 117.173 0 0 0-37.518 25.306 118.071 118.071 0 0 0-25.305 37.518C397.108 352.616 394 368.074 394 384s3.108 31.384 9.27 45.935c5.94 14.055 14.44 26.68 25.305 37.518s23.462 19.336 37.518 25.305C480.616 498.892 496.074 502 512 502m0 9.077c-70.195 0-127.077-56.882-127.077-127.077S441.805 256.923 512 256.923 639.077 313.805 639.077 384 582.195 511.077 512 511.077z"  horiz-adv-x="1024" />

    
    <glyph glyph-name="shang" unicode="&#58936;" d="M51.4 128.2c-19.7 19.7-19.7 51.7 0 71.4l428.2 428.2c19.7 19.7 51.7 19.7 71.4 0 19.7-19.7 19.7-51.7 0-71.4L122.8 128.2c-19.7-19.7-51.7-19.7-71.4 0z m428.2 499.6c19.7 19.7 51.7 19.7 71.4 0l428.2-428.2c19.7-19.7 19.7-51.7 0-71.4-19.7-19.7-51.7-19.7-71.4 0L479.6 556.4c-19.7 19.8-19.7 51.7 0 71.4z"  horiz-adv-x="1024" />

    
    <glyph glyph-name="zan1" unicode="&#58941;" d="M250.959392-55.77205a30.732686 30.732686 0 0 0-30.241618-30.691763c-52.9126-1.636894-113.559525-1.309515-132.138272 14.036366-28.154578 23.407585-24.676178 70.386444-24.676178 126.040843v292.881269c0 38.426088-6.79311 96.167526 4.337769 126.081765 20.051952 53.60828 87.901211 38.098709 151.903769 37.321184a30.650841 30.650841 0 0 0 30.732685-30.650841c0.081845-104.229229 0.081845-434.513528 0.081845-535.018823z m91.256844-27.008752a59.378332 59.378332 0 0 0-59.951245 59.296488V475.727451c0 19.765496 12.563162 37.362107 31.223754 43.827838 29.218559 10.844423 63.511489 27.090597 79.962275 38.098709 28.522879 19.069816 56.268233 49.311433 65.393917 89.947329 7.120489 32.042201-2.414419 73.291931 2.864565 109.630979 8.88015 60.892459 22.834672 108.853455 66.8262 129.273708 16.696319 7.693402 44.769052 11.049035 66.8262 6.506654 88.76058-18.210446 111.840786-117.65176 94.366942-240.500659l-5.770051-75.297127c93.425728 2.291652 176.579946 6.547576 219.221036-55.613475 30.323462-44.114295 36.871039-122.644287 20.338409-189.879711a1140.137633 1140.137633 0 0 0-91.461455-243.774447c-18.660592-36.093514-30.241618-75.951884-52.257843-107.994086-13.872677-20.051952-43.582304-51.316629-66.8262-58.887264l-370.756504-3.846701z"  horiz-adv-x="1024" />

    
    <glyph glyph-name="riqi" unicode="&#58947;" d="M802.458 0H233.472A115.66 115.66 0 0 0 117.76 115.507V577.024a115.66 115.66 0 0 0 115.712 115.507h41.83a30.72 30.72 0 0 0 0-61.44h-41.83a54.17 54.17 0 0 1-54.272-54.067v-461.466a54.17 54.17 0 0 1 54.272-54.118h568.986a54.17 54.17 0 0 1 54.067 54.067V577.024a54.17 54.17 0 0 1-54.067 54.067H763.75a30.72 30.72 0 0 0 0 61.44h38.708a115.66 115.66 0 0 0 115.558-115.507v-461.466A115.66 115.66 0 0 0 802.458 0zM610.714 631.091h-189.44a30.72 30.72 0 0 0 0 61.44h189.44a30.72 30.72 0 1 0 0-61.44z m267.212-217.395H158.003a30.72 30.72 0 0 0 0 61.44h719.923a30.72 30.72 0 0 0 0-61.44zM347.341 549.274a30.72 30.72 0 0 0-30.72 30.72V729.6a30.72 30.72 0 0 0 61.44 0v-149.606a30.72 30.72 0 0 0-30.72-30.72z m341.248 0a30.72 30.72 0 0 0-30.72 30.72V729.6a30.72 30.72 0 0 0 61.44 0v-149.606a30.72 30.72 0 0 0-30.72-30.72z"  horiz-adv-x="1024" />

    
    <glyph glyph-name="icon--download" unicode="&#58949;" d="M461.389489 821.146035a50.610511 50.610511 0 1 1 101.221022 0 50.610511 50.610511 0 1 1-101.221022 0zM967.498594 78.98819a36.035243 36.035243 0 0 1-36.035243-36.035244c0-53.646941-35.630319-98.893457-77.839405-98.893457H170.376054c-42.209086 0-77.839405 45.296507-77.839405 98.893457a36.035243 36.035243 0 0 1-72.069487 0c0-94.237331 67.261388-170.962944 149.908892-170.962944h683.247892c82.647504 0 149.908892 76.725614 149.908892 170.962944a36.085234 36.085234 0 0 1-36.034244 36.035244zM485.125039 5.906892a37.856902 37.856902 0 0 1 53.647941 0l143.178154 143.127164a37.957883 37.957883 0 1 1-53.697931 53.697932l-78.395301-78.345311v469.062051a37.957883 37.957883 0 0 1-75.917766 0V124.334687l-78.34531 78.345311a37.957883 37.957883 0 1 1-53.697932-53.697932L485.125039 5.905893z"  horiz-adv-x="1024" />

    
    <glyph glyph-name="weidenglu-touxiang" unicode="&#58951;" d="M363.776 344.32a239.104 239.104 0 0 1 297.216 0.512c161.92-82.624 184.512-234.112 189.248-284.544A468.8 468.8 0 0 1 982.656 387.2a470.656 470.656 0 1 1-941.312-0.064c0-127.104 50.624-242.24 132.48-326.912 4.736 48.512 28.672 201.152 189.952 284.096zM512 718.4c102.016 0 184.96-82.944 184.96-184.896S614.016 348.672 512 348.672c-101.952 0-184.896 82.816-184.896 184.832S410.048 718.4 512 718.4z"  horiz-adv-x="1024" />

    
    <glyph glyph-name="yinhao" unicode="&#58952;" d="M576.966437 341.106542C576.966437 668.160222 849.54917 861.156034 1023.999 896v-192.995812c-95.402907-29.495971-209.891795-179.597825-215.32379-343.124664H1023.999v-203.434802C1023.999-0.653124 896.653124-127.999 739.555278-127.999H576.966437V341.106542zM0 341.106542C0 668.160222 272.582734 861.156034 447.032563 896v-192.995812C351.629657 673.508217 237.139768 523.406364 231.707774 359.880524h212.593792v-203.434802c0-157.097847-127.345876-284.443722-284.443722-284.443722H0V341.106542z"  horiz-adv-x="1024" />

    
    <glyph glyph-name="tubiaozhizuomoban" unicode="&#58944;" d="M327.705 628.843c19.193-17.921 19.193-45.812 0-63.69L166.93 416.461h809.302c26.795 0 48.769-19.881 48.769-45.098 0-25.219-21.974-45.151-48.769-45.151H48.761c-19.913 0-37.78 10.635-45.323 27.892-2.719 5.291-3.438 11.247-3.438 17.26 0 11.914 4.827 23.212 14.424 31.842l243.878 225.637c19.252 17.259 50.152 17.259 69.403 0z"  horiz-adv-x="1026" />

    
    <glyph glyph-name="icon-test" unicode="&#58948;" d="M647 256.94091797c92.64726563 47.64726562 156.17636719 148.23632813 156.17636719 259.41181641 0 161.47089844-129.70546875 293.82363281-291.17636719 293.82363281S220.82363281 680.47089844 220.82363281 519c0-111.17636719 63.52910156-214.41181641 156.17636719-262.05908203-153.52910156-45-262.05908203-172.05820313-262.05908203-304.41181641h52.94179687C167.88183594 111.35273437000001 321.41181641 217.23632812000005 512 217.23632812000005s344.11816406-105.88183594 344.11816406-264.70634765h52.94091797c0 132.35361328-108.52998047 259.41181641-262.05908203 304.4118164zM273.76455078 519c0 132.35273438 105.88183594 238.23544922 238.23544922 238.23544922S750.23544922 651.35361328 750.23544922 519 644.35361328 280.76455078000004 512 280.76455078000004 273.76455078 389.29453125 273.76455078 519z"  horiz-adv-x="1024" />

    
    <glyph glyph-name="detail-icon-more" unicode="&#58953;" d="M765.95 628.701l243.64-225.416c9.587-8.622 14.41-19.908 14.41-31.811 0-6.008-0.719-11.957-3.436-17.243-7.535-17.241-25.385-27.865-45.278-27.865H48.721C21.951 326.366 0 346.278 0 371.475c0 25.191 21.951 45.052 48.721 45.052h808.512L696.614 565.0740000000001c-19.175 17.86-19.175 45.725 0 63.627 19.233 17.243 50.102 17.243 69.336 0z"  horiz-adv-x="1024" />

    
    <glyph glyph-name="home-icon-like" unicode="&#58954;" d="M241.636-65.63400000000001H113.502c-14.523 26.681-6.017 96.681-6.017 135.935 0.54 120.582 0.954 241.247 1.494 361.87 20.042 13.112 101.287 5.561 132.657 5.063v-502.868z m685.939 570.876c-44.273 64.523-130.623 60.125-227.678 57.76 2.074 26.1 3.984 52.075 6.059 78.175 18.092 127.553-5.852 230.791-98.01 249.711-22.904 4.689-52.074 1.204-69.377-6.763-45.727-21.204-60.168-70.997-69.379-134.233-5.477-37.718 4.398-80.54-2.988-113.818-9.459-42.2-38.256-73.569-67.883-93.403-35.686-23.9-81.744-38.424-129.628-47.594-76.557-14.523-181.827 29.461-208.051-40.706-11.577-31.079-4.481-91.038-4.481-130.955v-304.11c0-57.76-3.652-106.557 25.602-130.831 29.253-24.191 159.337-12.448 211.122-11.867V442.42c98.714 5.976 200.417 85.021 223.114 178.342 17.262 70.582-13.775 181.412 40.748 209.006 114.896 58.133 107.469-134.15 95.021-222.574-2.988-33.942-6.018-67.885-9.045-101.951v-5.063c80.623 3.485 205.395 28.175 245.811-32.282 22.24-33.361 22.863-98.881 10.498-146.06-23.611-90.042-105.105-316.185-158.383-363.654-31.867-28.382-55.395-9.668-103.984-18.755l-265.397-5.063v-57.76l358.8 5.104c24.109 7.843 54.98 40.332 69.338 61.121 22.904 33.278 34.938 74.689 54.273 112.117 38.549 74.689 72.822 163.237 95.021 253.114 17.135 69.834 10.33 151.371-21.123 197.18z"  horiz-adv-x="1024" />

    


  </font>
</defs>
</svg>
